<mxfile host="app.diagrams.net" modified="2023-09-27T16:04:34.500Z" agent="Mozilla/5.0 (X11; CrOS x86_64 14541.0.0) AppleWebKit/537.36 (KHTML, like Gecko) Chrome/114.0.0.0 Safari/537.36" version="21.3.2" etag="du9hgTYEa3SxNxJKvQGL" type="github">
  <diagram name="Page-1" id="zzVwOUBfHbSMA6vVXK1T">
    <mxGraphModel>
      <root>
        <mxCell id="0" />
        <mxCell id="1" parent="0" />
      </root>
    </mxGraphModel>
  </diagram>
</mxfile>
